<svg version="1.1" xmlns="http://www.w3.org/2000/svg" width="1024" height="1024">
<path d="M0 0 C337.92 0 675.84 0 1024 0 C1024 337.92 1024 675.84 1024 1024 C686.08 1024 348.16 1024 0 1024 C0 686.08 0 348.16 0 0 Z " fill="#FEFEFE" transform="translate(0,0)"/>
<path d="M0 0 C7.448 5.985 7.448 5.985 9.347 9.783 C13.088 8.536 14.605 6.591 17.347 3.783 C23.955 -1.858 28.831 -2.938 37.515 -2.646 C45.668 -1.732 50.542 2.502 55.722 8.596 C66.982 23.783 66.652 41.316 63.988 59.283 C61.577 75.684 59.975 92.219 59.347 108.783 C60.416 108.728 61.484 108.672 62.585 108.615 C68.949 108.899 72.487 112.825 76.722 117.283 C82.064 125.502 81.535 136.866 79.66 146.209 C76.104 157.631 69.799 168.335 59.343 174.576 C54.588 177.033 50.634 178.726 45.347 179.783 C45.677 193.643 46.007 207.503 46.347 221.783 C49.977 220.133 53.607 218.483 57.347 216.783 C68.893 212.545 84.617 211.311 96.367 215.74 C99.847 217.573 102.939 219.644 105.347 222.783 C105.556 223.75 105.765 224.717 105.98 225.713 C108.067 230.4 111.642 231.224 116.222 233.096 C126.145 237.48 137.272 242.589 142.644 252.611 C144.517 258.396 144.111 263.905 141.847 269.471 C141.105 270.615 141.105 270.615 140.347 271.783 C141.234 271.845 142.121 271.907 143.035 271.971 C161.379 274.639 179.416 287.186 190.347 301.783 C205.281 323.616 212.211 349.501 217.91 375.033 C218.061 375.706 218.213 376.379 218.369 377.073 C220.477 386.45 222.347 395.832 223.804 405.334 C224.331 408.681 225.015 411.939 225.792 415.233 C228.591 428.094 230.326 441.171 232.082 454.205 C232.474 457.11 232.873 460.014 233.273 462.918 C235.322 477.917 236.585 492.638 236.597 507.783 C236.598 508.96 236.598 508.96 236.599 510.161 C236.554 543.464 234.311 582.723 210.078 608.166 C200.304 617.482 189.054 623.471 176.347 627.783 C175.04 628.228 175.04 628.228 173.707 628.682 C172.257 629.167 170.804 629.644 169.347 630.107 C167.903 630.596 166.479 631.148 165.073 631.738 C162.306 632.799 159.62 633.52 156.734 634.186 C155.658 634.435 154.582 634.684 153.474 634.94 C152.339 635.198 151.204 635.455 150.035 635.721 C148.871 635.987 147.708 636.254 146.51 636.528 C138.939 638.245 131.363 639.814 123.714 641.143 C120.314 641.743 120.314 641.743 116.906 642.729 C110.239 644.43 103.355 645.087 96.535 645.908 C95.803 645.997 95.071 646.086 94.316 646.178 C85.564 647.229 76.863 648.156 68.035 648.158 C66.918 648.16 66.918 648.16 65.78 648.163 C63.061 648.105 60.839 648.03 58.382 646.799 C55.136 645.179 51.66 645.309 48.097 645.158 C47.352 645.12 46.607 645.081 45.839 645.041 C44.009 644.947 42.178 644.864 40.347 644.783 C40.347 646.433 40.347 648.083 40.347 649.783 C133.737 649.783 227.127 649.783 323.347 649.783 C323.677 651.433 324.007 653.083 324.347 654.783 C323.347 655.783 323.347 655.783 321.401 655.907 C320.107 655.906 320.107 655.906 318.787 655.905 C317.3 655.908 317.3 655.908 315.782 655.91 C314.128 655.906 314.128 655.906 312.441 655.901 C310.699 655.902 310.699 655.902 308.922 655.903 C305.685 655.904 302.447 655.901 299.21 655.896 C295.724 655.892 292.237 655.893 288.751 655.894 C283.49 655.895 278.229 655.895 272.968 655.892 C262.63 655.887 252.291 655.895 241.952 655.909 C240.326 655.911 238.7 655.913 237.074 655.915 C233.782 655.919 230.489 655.923 227.196 655.927 C218.725 655.938 210.253 655.948 201.781 655.956 C200.931 655.957 200.08 655.958 199.204 655.959 C185.424 655.972 171.644 655.967 157.864 655.956 C143.727 655.946 129.589 655.958 115.451 655.99 C106.726 656.01 98.001 656.011 89.275 655.988 C83.296 655.974 77.316 655.983 71.337 656.008 C67.885 656.022 64.434 656.026 60.982 656.004 C57.241 655.985 53.502 656.003 49.761 656.03 C48.121 656.009 48.121 656.009 46.447 655.987 C41.186 655.925 41.186 655.925 36.602 658.119 C35.055 659.903 35.055 659.903 33.347 662.783 C28.065 666.792 23.061 667.907 16.57 667.915 C15.383 667.918 14.197 667.922 12.974 667.926 C11.669 667.925 10.364 667.925 9.019 667.924 C7.62 667.926 6.22 667.929 4.821 667.933 C0.97 667.941 -2.88 667.943 -6.73 667.943 C-10.881 667.945 -15.031 667.953 -19.182 667.959 C-28.261 667.973 -37.339 667.979 -46.418 667.983 C-52.087 667.986 -57.755 667.99 -63.424 667.995 C-79.118 668.007 -94.812 668.017 -110.507 668.021 C-111.511 668.021 -112.516 668.021 -113.551 668.021 C-114.558 668.022 -115.565 668.022 -116.602 668.022 C-118.643 668.023 -120.683 668.023 -122.724 668.023 C-124.242 668.024 -124.242 668.024 -125.791 668.024 C-142.19 668.028 -158.59 668.046 -174.989 668.069 C-191.825 668.093 -208.661 668.105 -225.498 668.106 C-234.951 668.107 -244.404 668.113 -253.857 668.131 C-261.907 668.146 -269.957 668.151 -278.007 668.143 C-282.114 668.139 -286.22 668.14 -290.326 668.154 C-294.088 668.167 -297.851 668.166 -301.613 668.154 C-303.612 668.151 -305.612 668.163 -307.611 668.175 C-317.238 668.122 -324.925 666.855 -332.653 660.783 C-333.097 660.091 -333.54 659.4 -333.998 658.687 C-335.502 656.574 -335.502 656.574 -337.974 656.275 C-338.893 656.272 -339.812 656.268 -340.759 656.264 C-341.815 656.25 -342.871 656.236 -343.959 656.222 C-345.696 656.23 -345.696 656.23 -347.468 656.237 C-348.688 656.227 -349.907 656.217 -351.164 656.206 C-354.509 656.182 -357.853 656.175 -361.198 656.176 C-364.694 656.173 -368.189 656.147 -371.684 656.124 C-378.303 656.083 -384.922 656.063 -391.542 656.05 C-399.077 656.034 -406.613 655.995 -414.149 655.955 C-429.65 655.873 -445.151 655.819 -460.653 655.783 C-461.035 654.127 -461.367 652.459 -461.653 650.783 C-460.653 649.783 -460.653 649.783 -458.64 649.66 C-457.749 649.661 -456.857 649.662 -455.939 649.663 C-454.919 649.662 -453.9 649.66 -452.85 649.659 C-451.722 649.662 -450.594 649.666 -449.432 649.67 C-448.252 649.67 -447.071 649.669 -445.855 649.669 C-442.609 649.67 -439.364 649.675 -436.118 649.682 C-432.729 649.688 -429.341 649.689 -425.952 649.69 C-419.531 649.693 -413.11 649.701 -406.69 649.711 C-399.381 649.722 -392.073 649.728 -384.765 649.733 C-369.727 649.743 -354.69 649.761 -339.653 649.783 C-340.292 647.383 -340.931 644.982 -341.571 642.581 C-341.751 641.906 -341.931 641.23 -342.116 640.534 C-343.412 635.672 -344.734 630.817 -346.09 625.971 C-346.515 624.449 -346.939 622.926 -347.364 621.404 C-347.576 620.644 -347.789 619.883 -348.007 619.099 C-348.655 616.777 -349.299 614.454 -349.942 612.131 C-354.298 596.385 -354.298 596.385 -358.872 580.701 C-361.12 573.176 -363.216 565.659 -365.061 558.023 C-366.644 551.588 -368.575 545.268 -370.51 538.931 C-372.138 533.573 -373.59 528.207 -374.895 522.76 C-375.776 519.298 -376.805 515.889 -377.84 512.471 C-380.343 504.156 -382.503 495.757 -384.653 487.346 C-386.992 478.194 -389.359 469.057 -391.924 459.966 C-393.451 454.544 -394.909 449.106 -396.34 443.658 C-396.543 442.888 -396.746 442.117 -396.954 441.323 C-397.339 439.854 -397.721 438.383 -398.101 436.913 C-398.47 435.49 -398.845 434.069 -399.228 432.65 C-401.065 425.686 -402.222 418.979 -398.965 412.346 C-395.075 408.035 -390.977 404.092 -385.005 403.537 C-383.484 403.54 -383.484 403.54 -381.933 403.543 C-380.183 403.539 -380.183 403.539 -378.397 403.534 C-377.121 403.542 -375.845 403.549 -374.531 403.556 C-373.171 403.557 -371.81 403.556 -370.45 403.555 C-366.76 403.555 -363.071 403.566 -359.381 403.58 C-355.524 403.593 -351.667 403.594 -347.81 403.596 C-340.507 403.603 -333.205 403.619 -325.902 403.639 C-317.588 403.662 -309.273 403.673 -300.959 403.683 C-283.857 403.703 -266.755 403.739 -249.653 403.783 C-249.678 402.514 -249.703 401.245 -249.728 399.937 C-249.801 396.223 -249.287 394.325 -246.84 391.408 C-246.318 390.761 -245.796 390.114 -245.258 389.447 C-242.307 386.388 -239.742 385.446 -235.653 384.783 C-235.506 384.123 -235.359 383.463 -235.208 382.783 C-234.376 379.112 -233.516 375.447 -232.653 371.783 C-232.454 370.93 -232.255 370.077 -232.051 369.199 C-228.629 354.61 -224.395 340.485 -219.509 326.324 C-218.403 323.041 -217.429 319.735 -216.465 316.408 C-213.566 306.96 -209.299 300.041 -202.93 292.506 C-194.264 282.146 -188.842 273.068 -189.262 259.252 C-190.017 252.551 -192.324 246.771 -195.903 241.096 C-198.209 236.731 -198.362 234.666 -197.653 229.783 C-195.965 226.783 -195.965 226.783 -192.653 224.783 C-184.71 223.37 -178.415 224.421 -171.797 229.029 C-164.238 235.212 -159.729 243.554 -156.653 252.783 C-156.054 263.258 -156.698 272.67 -159.653 282.783 C-158.518 282.701 -157.384 282.618 -156.215 282.533 C-146.995 282.519 -137.156 285.277 -128.653 288.721 C-124.484 290.243 -121.682 289.266 -117.696 287.545 C-115.653 286.783 -115.653 286.783 -111.653 286.783 C-111.756 285.649 -111.859 284.514 -111.965 283.346 C-111.922 275.205 -106.339 268.735 -101.04 263.002 C-95.872 258.198 -89.9 252.783 -82.653 252.783 C-82.57 251.752 -82.488 250.721 -82.403 249.658 C-81.589 245.455 -79.993 243.294 -77.653 239.783 C-77.961 236.017 -80.071 233.688 -82.34 230.783 C-93.779 215.361 -100.027 196.335 -101.09 177.221 C-101.413 172.288 -102.59 169.746 -105.653 165.783 C-109.689 157.582 -111.313 147.855 -110.653 138.783 C-108.653 136.783 -108.653 136.783 -106.028 136.658 C-105.244 136.699 -104.46 136.741 -103.653 136.783 C-103.858 135.758 -104.063 134.734 -104.274 133.678 C-105.4 128.046 -106.527 122.415 -107.653 116.783 C-108.469 117.107 -109.285 117.43 -110.125 117.764 C-114.242 118.953 -117.835 119.115 -122.09 119.096 C-123.178 119.12 -123.178 119.12 -124.288 119.145 C-130.991 119.151 -136.303 117.382 -141.465 112.908 C-142.029 112.436 -142.592 111.965 -143.172 111.479 C-146.64 107.508 -146.83 103.504 -146.903 98.408 C-147.235 92.96 -148.02 90.108 -152.083 86.443 C-157.001 81.244 -157.29 75.3 -157.272 68.535 C-156.897 58.329 -152.264 50.15 -145.278 42.783 C-142.367 40.08 -139.425 37.953 -136.028 35.908 C-132.381 33.621 -130.575 31.429 -128.403 27.721 C-117.354 9.07 -96.201 -4.225 -75.653 -10.092 C-51.901 -16.106 -20.258 -14.914 0 0 Z " fill="#0D0C35" transform="translate(564.65283203125,223.216796875)"/>
<path d="M0 0 C1.518 -0.008 3.037 -0.018 4.555 -0.031 C8.72 -0.057 12.884 -0.047 17.048 -0.03 C21.543 -0.019 26.037 -0.042 30.531 -0.06 C39.333 -0.091 48.134 -0.089 56.936 -0.075 C64.09 -0.064 71.243 -0.065 78.397 -0.073 C79.924 -0.075 79.924 -0.075 81.482 -0.077 C83.55 -0.079 85.618 -0.082 87.687 -0.084 C107.082 -0.107 126.478 -0.091 145.873 -0.064 C162.514 -0.041 179.155 -0.053 195.796 -0.089 C215.12 -0.131 234.445 -0.15 253.769 -0.134 C255.83 -0.132 257.891 -0.131 259.952 -0.129 C260.966 -0.128 261.98 -0.128 263.025 -0.127 C270.169 -0.123 277.313 -0.136 284.457 -0.155 C293.165 -0.178 301.873 -0.176 310.58 -0.143 C315.023 -0.127 319.465 -0.121 323.908 -0.147 C327.976 -0.169 332.043 -0.16 336.112 -0.124 C337.582 -0.117 339.052 -0.122 340.523 -0.14 C352.855 -0.277 352.855 -0.277 358.086 4.153 C360.759 6.907 362.363 9.233 363.128 13.062 C363.432 14.482 363.432 14.482 363.743 15.93 C363.907 16.867 364.072 17.804 364.241 18.769 C364.405 19.611 364.568 20.454 364.736 21.322 C365.214 23.903 365.638 26.489 366.054 29.081 C367.546 38.016 369.241 46.893 371.054 55.769 C373.377 67.201 375.517 78.657 377.554 90.144 C380.177 104.931 382.896 119.698 385.679 134.456 C389.015 152.155 392.288 169.864 395.485 187.589 C396.907 195.465 398.337 203.339 399.851 211.198 C400.208 213.067 400.208 213.067 400.572 214.974 C400.998 217.191 401.43 219.406 401.871 221.619 C404.729 236.536 404.729 236.536 401.491 242.706 C399.275 245.722 398.592 246.527 395.241 247.769 C392.542 248.023 392.542 248.023 389.384 248.029 C388.179 248.036 386.974 248.043 385.733 248.05 C384.394 248.048 383.055 248.045 381.717 248.043 C380.296 248.047 378.875 248.053 377.454 248.059 C373.545 248.073 369.636 248.074 365.727 248.074 C361.513 248.076 357.299 248.089 353.085 248.1 C343.868 248.123 334.651 248.131 325.434 248.136 C319.679 248.139 313.925 248.146 308.171 248.153 C292.24 248.173 276.31 248.189 260.38 248.192 C258.851 248.192 258.851 248.192 257.29 248.193 C255.223 248.193 253.156 248.193 251.089 248.194 C249.549 248.194 249.549 248.194 247.979 248.194 C246.438 248.194 246.438 248.194 244.866 248.195 C228.217 248.198 211.568 248.225 194.919 248.263 C177.829 248.301 160.738 248.32 143.648 248.32 C134.051 248.321 124.454 248.33 114.858 248.358 C106.686 248.383 98.514 248.39 90.343 248.375 C86.174 248.368 82.005 248.369 77.836 248.392 C74.017 248.412 70.199 248.41 66.381 248.389 C64.349 248.384 62.317 248.403 60.285 248.423 C53.101 248.357 47.645 247.837 42.241 242.769 C38.749 238.294 37.414 233.441 36.3 227.921 C35.97 226.412 35.636 224.904 35.299 223.397 C35.128 222.63 34.957 221.863 34.781 221.073 C33.915 217.377 32.888 213.732 31.839 210.085 C31.634 209.371 31.428 208.656 31.217 207.92 C30.582 205.723 29.943 203.527 29.304 201.331 C28.634 199.011 27.965 196.69 27.297 194.37 C26.863 192.865 26.429 191.36 25.995 189.855 C24.083 183.237 22.227 176.604 20.398 169.963 C19.47 166.594 18.536 163.227 17.599 159.861 C15.427 152.055 13.269 144.245 11.12 136.433 C10.294 133.431 9.467 130.43 8.64 127.429 C8.083 125.409 7.528 123.389 6.974 121.369 C3.854 110.011 0.685 98.677 -2.783 87.419 C-4.31 82.428 -5.616 77.423 -6.759 72.331 C-8.382 65.148 -10.336 58.097 -12.396 51.027 C-14.694 43.103 -16.789 35.133 -18.842 27.143 C-19.079 26.223 -19.316 25.303 -19.559 24.355 C-19.767 23.54 -19.975 22.726 -20.19 21.887 C-20.653 20.164 -21.194 18.462 -21.759 16.769 C-22.102 14.499 -22.102 14.499 -22.259 11.956 C-22.331 11.125 -22.403 10.293 -22.477 9.437 C-21.518 5.877 -20.02 4.374 -17.195 2.062 C-11.93 -0.733 -5.819 -0.055 0 0 Z " fill="#E3E7EF" transform="translate(193.75865173339844,634.2313690185547)"/>
<path d="M0 0 C2.789 2.324 2.977 2.876 3.688 6.688 C3.435 15.213 -2.194 24.97 -7.77 31.238 C-10.419 33.927 -10.419 33.927 -10 38 C-2.311 35.654 2.507 27.818 6.438 21.125 C7.775 18.45 8.978 15.81 10 13 C21.272 14.692 31.384 21.853 39 30 C40.661 33.323 40.529 35.295 40 39 C34.82 47.687 25.425 52.886 17 58 C16.283 58.436 15.566 58.872 14.828 59.322 C1.297 67.461 -12.764 74.612 -26.829 81.77 C-33.957 85.397 -41.047 89.044 -48 93 C-48 93.99 -48 94.98 -48 96 C-42.39 95.486 -38.24 93.977 -33.25 91.422 C-32.523 91.059 -31.796 90.696 -31.046 90.322 C-28.692 89.142 -26.346 87.947 -24 86.75 C-22.372 85.927 -20.744 85.104 -19.116 84.281 C9.672 71.143 9.672 71.143 35 53 C53.025 53.316 70.366 64.025 82.609 76.52 C92.824 87.391 99.634 102.391 103.93 116.535 C104.71 119.063 105.542 121.482 106.488 123.945 C114.777 145.734 118.723 169.65 122.141 192.602 C122.769 196.744 123.583 200.801 124.527 204.881 C125.303 208.357 125.882 211.858 126.438 215.375 C126.562 216.164 126.687 216.954 126.816 217.767 C128.449 228.475 129.574 239.252 130.686 250.025 C130.874 251.804 131.073 253.581 131.297 255.356 C135.452 290.062 136.043 341.685 113.776 370.588 C86.543 404.1 28.357 410.936 -12 416 C-15.025 416.133 -17.971 416.103 -21 416 C-20.734 415.371 -20.469 414.742 -20.195 414.094 C-19.842 413.238 -19.489 412.382 -19.125 411.5 C-18.777 410.665 -18.429 409.829 -18.07 408.969 C-12.035 392.229 -14.441 374.781 -21.583 358.797 C-29.453 342.344 -42.25 331.91 -59 325 C-55.3 320.614 -50.573 318.347 -45.562 315.75 C-44.634 315.268 -43.705 314.787 -42.748 314.291 C-20.971 303.238 2.157 295.827 26.688 295.812 C27.795 295.8 28.903 295.788 30.045 295.775 C41.214 295.756 51.295 297.13 61.562 301.625 C62.378 301.975 63.194 302.326 64.034 302.687 C70.699 305.654 76.366 309.361 82 314 C83.494 315.154 84.994 316.3 86.5 317.438 C87.108 317.911 87.717 318.384 88.344 318.871 C90.119 320.191 90.119 320.191 93 321 C89.651 310.282 79.374 304.052 69.892 298.932 C56.413 292.295 42.626 289.649 27.688 289.75 C26.554 289.742 25.42 289.735 24.252 289.727 C16.339 289.745 8.783 290.588 1 292 C8.543 279.618 22.945 272.461 36.551 268.543 C54.985 264.456 76.749 265.093 94 273 C95.988 273.398 97.987 273.755 100 274 C99.078 270.951 98.428 269.325 95.855 267.375 C82.958 260.728 71.667 256.823 57.125 256.812 C56.278 256.8 55.431 256.788 54.559 256.775 C37.85 256.737 22.698 264.012 9.322 273.615 C8.698 274.063 8.074 274.51 7.431 274.971 C6.959 275.311 6.487 275.65 6 276 C5.975 274.972 5.95 273.945 5.924 272.886 C5.829 269.017 5.729 265.147 5.628 261.278 C5.585 259.614 5.543 257.95 5.503 256.286 C5.444 253.873 5.381 251.46 5.316 249.047 C5.3 248.321 5.283 247.596 5.266 246.848 C5.148 242.615 4.877 238.423 4.497 234.205 C3.653 224.476 3.698 214.728 3.65 204.969 C3.633 202.555 3.606 200.14 3.568 197.725 C2.94 157.909 13.146 124.811 40.718 95.833 C47.059 89.332 53.501 83.774 61.304 79.093 C64.581 77.112 66.744 75.717 68 72 C54.259 73.832 44.589 83.761 35 93 C34.031 93.874 34.031 93.874 33.043 94.766 C11.659 114.597 0.585 145.943 -1.216 174.413 C-1.513 182.88 -1.413 191.343 -1.312 199.812 C-1.301 202.282 -1.291 204.751 -1.283 207.221 C-1.213 221.262 -0.816 235.273 -0.229 249.301 C0.054 256.139 0.216 262.969 0.25 269.812 C0.281 271.505 0.281 271.505 0.312 273.232 C0.318 274.317 0.323 275.402 0.328 276.52 C0.337 277.459 0.347 278.399 0.356 279.366 C-0.07 282.517 -1.293 284.349 -3 287 C-3.714 290.194 -3.714 290.194 -4 293 C-4.592 293.195 -5.184 293.39 -5.794 293.592 C-29.198 301.368 -51.772 310.672 -72 325 C-73.447 320.204 -74.516 315.508 -75.348 310.559 C-75.606 309.05 -75.865 307.542 -76.125 306.035 C-76.265 305.226 -76.404 304.417 -76.548 303.584 C-77.914 295.777 -79.395 287.989 -80.852 280.198 C-81.242 278.11 -81.631 276.021 -82.018 273.932 C-84.069 262.865 -86.194 251.835 -88.69 240.859 C-89.842 235.781 -90.837 230.709 -91.625 225.562 C-91.867 224.059 -92.109 222.555 -92.352 221.051 C-92.463 220.353 -92.574 219.655 -92.688 218.936 C-93.238 215.519 -93.835 212.114 -94.484 208.715 C-94.877 206.65 -95.235 204.578 -95.578 202.504 C-96.932 195.065 -98.303 189.207 -104 184 C-110.356 180.086 -116.397 179.4 -123.723 179.391 C-124.709 179.374 -125.695 179.358 -126.711 179.341 C-129.828 179.292 -132.945 179.271 -136.062 179.25 C-138.189 179.222 -140.316 179.192 -142.443 179.16 C-147.629 179.087 -152.814 179.037 -158 179 C-157.307 171.769 -156.087 164.72 -154.715 157.59 C-154.262 155.195 -153.81 152.8 -153.357 150.404 C-152.647 146.662 -151.934 142.921 -151.218 139.18 C-150.523 135.547 -149.837 131.912 -149.152 128.277 C-148.937 127.166 -148.721 126.054 -148.499 124.909 C-146.342 114.876 -146.342 114.876 -148.355 105.137 C-148.96 104.328 -149.565 103.52 -150.188 102.688 C-150.779 101.866 -151.371 101.045 -151.98 100.199 C-154.125 97.864 -156.215 96.486 -159 95 C-159.445 100.29 -157.468 102.506 -154.312 106.523 C-151.667 111.515 -153.089 117.441 -153.953 122.832 C-154.261 124.759 -154.261 124.759 -154.575 126.725 C-154.799 128.088 -155.025 129.45 -155.25 130.812 C-155.363 131.504 -155.475 132.195 -155.591 132.908 C-157.146 142.444 -158.934 151.889 -161.156 161.293 C-162.176 165.774 -162.93 170.268 -163.605 174.812 C-164 177 -164 177 -165 179 C-181.83 179 -198.66 179 -216 179 C-216.66 172.4 -217.32 165.8 -218 159 C-219.41 148.861 -219.41 148.861 -222.734 139.309 C-224 136 -224 136 -223.27 133.742 C-222.789 133.126 -222.308 132.51 -221.812 131.875 C-217.859 126.625 -216.756 122.516 -216.656 115.906 C-216.634 114.903 -216.634 114.903 -216.612 113.879 C-216.566 111.752 -216.531 109.626 -216.5 107.5 C-216.459 104.698 -216.405 101.896 -216.344 99.094 C-216.325 97.853 -216.306 96.612 -216.287 95.334 C-216.01 92.113 -215.314 89.92 -214 87 C-213.392 81.358 -213.78 76.272 -216 71 C-211.584 69.528 -208.48 68.504 -204 70 C-202.41 71.82 -202.41 71.82 -201.062 74.125 C-196.568 81.698 -191.565 86.785 -184 91.25 C-183.314 91.67 -182.628 92.09 -181.922 92.523 C-174.47 97.328 -174.47 97.328 -166 99 C-166 97.68 -166 96.36 -166 95 C-168.327 93.049 -168.327 93.049 -171.375 91.312 C-180.93 85.235 -188.441 78.22 -195 69 C-195.639 68.216 -196.279 67.433 -196.938 66.625 C-198.766 62.108 -198.795 57.779 -198 53 C-194.826 45.813 -187.335 40.296 -181 36 C-180.01 36 -179.02 36 -178 36 C-178 38.31 -178 40.62 -178 43 C-177.34 43 -176.68 43 -176 43 C-175.01 46.3 -174.02 49.6 -173 53 C-172.01 53 -171.02 53 -170 53 C-169.973 51.417 -169.954 49.833 -169.938 48.25 C-169.926 47.368 -169.914 46.487 -169.902 45.578 C-169.908 43.086 -169.908 43.086 -170.484 41.07 C-171.799 35.79 -172.185 28.894 -170.105 23.816 C-169 22.188 -169 22.188 -167 20 C-163.13 20.607 -160.766 22.465 -157.688 24.812 C-153.576 27.882 -149.523 30.588 -145 33 C-145 33.66 -145 34.32 -145 35 C-146.667 36.667 -148.333 38.333 -150 40 C-153.294 45.312 -152.61 51.691 -151.513 57.643 C-150.819 60.376 -150.029 63.058 -149.188 65.75 C-148.884 66.751 -148.581 67.751 -148.268 68.782 C-145.688 77.128 -142.903 85.41 -140.037 93.662 C-139.557 95.047 -139.079 96.432 -138.605 97.819 C-137.932 99.775 -137.244 101.724 -136.551 103.672 C-136.155 104.797 -135.76 105.922 -135.353 107.081 C-133.59 110.884 -131.614 113.264 -127.781 115.012 C-127.028 115.235 -126.276 115.458 -125.5 115.688 C-124.747 115.918 -123.994 116.149 -123.219 116.387 C-122.487 116.589 -121.754 116.791 -121 117 C-120.376 117.173 -119.751 117.347 -119.108 117.526 C-105.683 120.547 -92.278 117.016 -79.996 111.77 C-78 111 -78 111 -76 111 C-75.753 110.319 -75.505 109.639 -75.25 108.938 C-74.034 106.08 -72.564 103.481 -70.996 100.805 C-69.78 98.601 -68.855 96.299 -67.883 93.98 C-61.203 78.996 -50.728 65.917 -41.011 52.822 C-29.123 37.604 -29.123 37.604 -27 19 C-28.897 15.016 -31.946 12.627 -36 11 C-38.074 10.715 -40.161 10.511 -42.25 10.375 C-43.866 10.263 -43.866 10.263 -45.516 10.148 C-46.745 10.075 -46.745 10.075 -48 10 C-48 7.69 -48 5.38 -48 3 C-14.046 -9.654 -14.046 -9.654 0 0 Z " fill="#8690CC" transform="translate(660,448)"/>
<path d="M0 0 C5.098 2.451 7.855 5.837 10 11 C10.536 13.816 10.574 16.515 10.5 19.375 C10.487 20.127 10.474 20.878 10.461 21.653 C10.246 27.549 9.166 31.968 6 37 C5.201 38.388 5.201 38.388 4.387 39.805 C-2.562 51.422 -11.394 55.94 -24 60 C-24.036 61.01 -24.036 61.01 -24.073 62.041 C-24.878 81.449 -27.818 95.495 -40 111 C-40.639 111.887 -41.279 112.774 -41.938 113.688 C-51.959 124.924 -67.933 137.682 -83.333 139.235 C-94.425 139.832 -104.186 139.748 -114 134 C-114.917 133.504 -115.833 133.007 -116.777 132.496 C-136.642 120.934 -148.169 100.714 -154 79.09 C-155.346 73.783 -156.299 68.429 -157 63 C-154.34 63.456 -152.009 63.996 -149.512 65.039 C-143.22 67.446 -136.624 66.528 -130.5 64.062 C-128.997 63.382 -127.496 62.695 -126 62 C-124.515 61.505 -124.515 61.505 -123 61 C-122.974 61.652 -122.948 62.305 -122.922 62.977 C-122.559 68.571 -122.204 72.904 -118 77 C-110.381 78.291 -104.258 75.172 -98 71 C-98 70.34 -98 69.68 -98 69 C-101.4 69.4 -103.129 70.088 -106 72.062 C-109 74 -109 74 -111.688 74.5 C-114 74 -114 74 -115.625 72.281 C-118.884 66.874 -117.174 59.496 -116.062 53.562 C-114.427 44.804 -114.334 35.884 -114 27 C-112.062 27.352 -112.062 27.352 -110 28 C-109 30.375 -109 30.375 -108 34 C-104.931 43.868 -101.788 51.188 -92.562 56.5 C-83.367 60.659 -73.912 60.447 -64.5 57 C-57.655 53.72 -53.008 49.126 -50.125 42.062 C-48.089 34.993 -48.243 27.306 -48 20 C-43.037 17.629 -38.541 15.568 -33 15 C-31.365 18.27 -31.547 21.859 -31.281 25.469 C-31.149 27.991 -31.149 27.991 -30 30 C-26.069 29.425 -26.069 29.425 -23 27 C-22.875 24.627 -22.824 22.251 -22.812 19.875 C-22.585 13.689 -21.559 9.822 -16.957 5.52 C-16.311 5.018 -15.665 4.517 -15 4 C-14.14 3.325 -14.14 3.325 -13.262 2.637 C-8.733 -0.393 -5.227 -0.664 0 0 Z " fill="#FAAF7D" transform="translate(628,339)"/>
<path d="M0 0 C5.042 -0.63 7.918 0.63 11.977 3.383 C19.28 9.22 23.405 15.788 25 25 C25.687 31.726 24.813 38.02 23.312 44.562 C23.09 45.617 23.09 45.617 22.863 46.693 C22.363 48.691 22.363 48.691 21 52 C18.355 53.465 18.355 53.465 16 54 C16.495 55.98 16.495 55.98 17 58 C17.618 58.009 18.236 58.019 18.873 58.028 C52.411 58.663 52.411 58.663 61.746 67.918 C64.056 71.754 63.623 75.698 63 80 C59.903 80 57.696 79.248 54.807 78.221 C45.944 75.112 38.371 74.394 29 75 C28.34 76.65 27.68 78.3 27 80 C28.256 79.954 29.511 79.907 30.805 79.859 C48.253 79.406 48.253 79.406 56 84 C57.031 84.557 58.062 85.114 59.125 85.688 C61.976 89.204 61.419 92.643 61 97 C57.808 96.485 54.974 95.615 51.969 94.469 C46.733 92.704 41.915 92.656 36.438 92.812 C35.524 92.826 34.611 92.84 33.67 92.854 C31.446 92.888 29.223 92.937 27 93 C26.67 94.65 26.34 96.3 26 98 C27.149 97.954 28.297 97.907 29.48 97.859 C39.016 97.591 48.316 97.45 57 102 C59.693 104.843 60.878 106.309 61.562 110.188 C60.699 116.039 58.225 121.775 54 126 C51.723 126.012 51.723 126.012 49.062 125.688 C48.187 125.588 47.312 125.489 46.41 125.387 C44 125 44 125 41 124 C38.605 123.93 36.208 123.916 33.812 123.938 C32.54 123.947 31.268 123.956 29.957 123.965 C28.981 123.976 28.005 123.988 27 124 C26.67 125.65 26.34 127.3 26 129 C27.558 129.073 27.558 129.073 29.148 129.148 C50.239 130.239 50.239 130.239 54 134 C54.478 137.585 54.306 139.465 52.5 142.625 C46.57 148.259 41.349 149.175 33.562 149.812 C25.938 150.518 21.21 152.068 16 158 C10.476 164.648 10.476 164.648 6 172 C0.574 172.199 -4.849 172.343 -10.278 172.439 C-12.122 172.48 -13.966 172.534 -15.809 172.604 C-30.883 173.157 -30.883 173.157 -35.808 170.465 C-38.834 167.349 -40.328 164.375 -40.543 160.023 C-40.349 158.019 -40.349 158.019 -40 156 C-39.894 155.331 -39.788 154.663 -39.678 153.974 C-39.287 151.838 -38.815 149.737 -38.312 147.625 C-38.04 146.449 -38.04 146.449 -37.762 145.249 C-34.731 132.379 -30.97 119.736 -27.087 107.1 C-26.518 105.247 -25.952 103.394 -25.386 101.54 C-20.6 86.12 -15.385 73.171 -4.812 60.812 C3.122 51.494 6.397 42.411 6.375 30.188 C6.374 29.302 6.373 28.416 6.372 27.504 C6.229 19.576 4.477 13.844 0.188 7.188 C-1 5 -1 5 -0.688 2.188 C-0.461 1.466 -0.234 0.744 0 0 Z " fill="#FAAF7D" transform="translate(376,455)"/>
<path d="M0 0 C4.342 1.579 6.113 4.161 8.051 8.297 C9.037 11.104 9.675 13.917 10.293 16.824 C12.047 24.94 14.156 30.724 21 36 C24.232 37.943 27.539 39.511 31 41 C35.678 43.339 35.678 43.339 37.086 46.23 C38.581 50.76 38.657 55.253 39 60 C32.07 60.99 25.14 61.98 18 63 C18.675 69.233 18.675 69.233 19.562 75.438 C20.604 83.919 20.528 90.517 16 98 C12.091 102.886 7.4 106.425 1.104 107.248 C-6.44 107.867 -14.307 108.445 -20.5 103.469 C-21.243 102.742 -21.243 102.742 -22 102 C-22.908 101.134 -23.815 100.267 -24.75 99.375 C-31.051 90.987 -31.599 81.123 -32 71 C-40.415 71.495 -40.415 71.495 -49 72 C-48.505 75.465 -48.505 75.465 -48 79 C-47.735 82.812 -47.679 86.618 -47.625 90.438 C-47.569 91.935 -47.569 91.935 -47.512 93.463 C-47.432 100.237 -48.431 104.854 -53 110 C-55.133 111.621 -55.133 111.621 -57.125 112.438 C-57.788 112.725 -58.45 113.012 -59.133 113.309 C-65.326 115.602 -71.107 116.184 -77.25 113.375 C-81.016 111.492 -83.864 108.606 -86 105 C-86.651 102.086 -86.587 99.294 -86.488 96.32 C-86.481 95.508 -86.474 94.695 -86.467 93.857 C-86.439 91.279 -86.376 88.703 -86.312 86.125 C-86.287 84.37 -86.265 82.615 -86.244 80.859 C-86.189 76.572 -86.103 72.286 -86 68 C-80.386 65.159 -75.983 63.484 -69.562 63.688 C-67.77 63.724 -67.77 63.724 -65.941 63.762 C-63 64 -63 64 -61 65 C-59.627 65.069 -58.25 65.085 -56.875 65.062 C-55.596 65.042 -54.317 65.021 -53 65 C-51.601 62.201 -51.747 60.095 -52 57 C-54.023 54.018 -56.648 53.11 -60 52 C-69.432 51.038 -78.084 51.077 -86 57 C-86.33 57.66 -86.66 58.32 -87 59 C-87.66 59 -88.32 59 -89 59 C-91.296 47.478 -91.296 47.478 -91 42 C-83.524 37.857 -76.029 35.333 -67.812 33.062 C-48.403 27.486 -31.878 21.159 -17 7 C-11.251 1.891 -7.957 -0.797 0 0 Z " fill="#FAAF7D" transform="translate(555,286)"/>
<path d="M0 0 C5.082 0.248 7.725 1.996 11.484 5.137 C13 7 13 7 13.648 9.938 C15.717 14.624 19.304 15.444 23.875 17.312 C33.798 21.697 44.925 26.806 50.297 36.828 C52.17 42.613 51.764 48.121 49.5 53.688 C49.005 54.451 48.51 55.214 48 56 C48.887 56.062 49.774 56.124 50.688 56.188 C69.031 58.856 87.069 71.403 98 86 C112.934 107.833 119.864 133.718 125.562 159.25 C125.714 159.923 125.866 160.596 126.022 161.289 C128.13 170.667 130 180.048 131.457 189.551 C131.984 192.897 132.668 196.156 133.445 199.45 C136.244 212.311 137.978 225.388 139.735 238.422 C140.127 241.327 140.526 244.231 140.926 247.135 C142.975 262.134 144.238 276.855 144.25 292 C144.251 292.785 144.251 293.569 144.252 294.378 C144.207 327.681 141.964 366.94 117.73 392.383 C107.957 401.698 96.707 407.688 84 412 C83.129 412.296 82.257 412.593 81.359 412.898 C79.909 413.383 78.457 413.86 77 414.324 C74.937 414.995 74.937 414.995 72.737 415.952 C69.911 417.034 67.159 417.76 64.211 418.438 C63.104 418.693 61.996 418.948 60.855 419.211 C59.707 419.471 58.558 419.732 57.375 420 C56.25 420.26 55.124 420.521 53.965 420.789 C33.932 425.375 33.932 425.375 27 425 C27.66 423.35 28.32 421.7 29 420 C27.68 419.34 26.36 418.68 25 418 C26.553 417.706 26.553 417.706 28.137 417.406 C78.27 408.058 78.27 408.058 117.188 377.688 C139.168 342.637 137.56 289.65 132 250 C131.903 249.301 131.806 248.603 131.706 247.883 C129.076 229.009 126.343 210.134 122.498 191.464 C121.948 188.742 121.435 186.015 120.926 183.285 C118.653 171.273 115.964 159.404 112.938 147.562 C112.689 146.578 112.689 146.578 112.435 145.574 C110.458 137.782 108.129 130.399 105 123 C104.289 121.001 103.581 119.001 102.875 117 C94.863 96.31 83.036 79.605 62.625 69.812 C50.758 64.227 50.758 64.227 38 63 C35.705 64.313 33.729 65.62 31.625 67.188 C22.209 73.821 12.092 79.085 1.921 84.456 C-0.734 85.859 -3.382 87.276 -6.027 88.699 C-14.397 93.184 -22.852 97.501 -31.375 101.688 C-32.261 102.134 -33.148 102.581 -34.061 103.042 C-34.894 103.444 -35.728 103.847 -36.586 104.262 C-37.319 104.622 -38.051 104.983 -38.806 105.354 C-41.523 106.154 -43.3 105.739 -46 105 C-45.702 103.128 -45.702 103.128 -45 101 C-42.433 99.372 -39.968 98.021 -37.25 96.688 C-36.425 96.267 -35.599 95.847 -34.749 95.414 C-32.884 94.465 -31.017 93.522 -29.147 92.583 C-23.204 89.593 -17.289 86.548 -11.375 83.5 C-10.748 83.177 -10.121 82.854 -9.475 82.521 C0.554 77.348 10.436 71.999 20 66 C20.57 65.644 21.14 65.287 21.727 64.92 C33.099 57.82 33.099 57.82 42 48 C42.507 44.701 42.671 42.238 41.043 39.234 C35.057 31.576 25.13 26.062 16 23 C15.01 23 14.02 23 13 23 C12.629 23.969 12.258 24.939 11.875 25.938 C8.56 33.642 2.822 43.589 -4.875 47.438 C-5.576 47.623 -6.278 47.809 -7 48 C-7.875 46 -7.875 46 -8 43 C-6.977 41.379 -6.977 41.379 -5.5 39.562 C-0.275 33.087 5.271 24.398 5.75 15.875 C4.845 11.197 3.617 10.803 0 8 C-0.461 5.205 -0.238 2.854 0 0 Z " fill="#0D0C35" transform="translate(657,439)"/>
<path d="M0 0 C0.66 0 1.32 0 2 0 C2.075 0.776 2.15 1.552 2.228 2.352 C2.578 5.902 2.945 9.451 3.312 13 C3.489 14.831 3.489 14.831 3.67 16.699 C4.366 23.301 5.297 28.928 8 35 C8.316 35.777 8.632 36.555 8.957 37.355 C11.213 42.187 13.686 44.862 18 48 C16.611 51.968 14.763 54.876 12.188 58.188 C9.295 61.956 6.451 65.742 3.691 69.609 C3.122 70.407 2.553 71.205 1.966 72.027 C0.843 73.605 -0.277 75.185 -1.394 76.768 C-6.553 83.994 -10.933 88.517 -19.312 91.625 C-20.105 91.923 -20.898 92.222 -21.714 92.53 C-38.347 98.561 -56.286 101.051 -73 94 C-73.597 93.753 -74.194 93.507 -74.809 93.252 C-79.371 91.071 -81.069 88.794 -82.748 84.059 C-82.976 83.338 -83.203 82.617 -83.438 81.875 C-83.692 81.147 -83.947 80.418 -84.209 79.668 C-86 74.445 -86 74.445 -86 72 C-85.408 71.974 -84.817 71.948 -84.207 71.922 C-78.94 71.544 -75.826 70.942 -72 67 C-69.81 63.715 -69.647 62.169 -69.375 58.312 C-69.3 57.319 -69.225 56.325 -69.148 55.301 C-69.099 54.542 -69.05 53.782 -69 53 C-66.225 54.076 -63.673 55.181 -61.062 56.625 C-54.353 59.44 -46.494 59.12 -39.672 56.934 C-26.497 50.859 -21.87 40.471 -16 28 C-12.142 19.868 -7.809 12.335 -2.855 4.836 C-1.049 2.193 -1.049 2.193 0 0 Z " fill="#FAAF7D" transform="translate(602,440)"/>
<path d="M0 0 C12.309 8.371 21.784 22.52 25 37 C25.274 40.65 25.28 44.278 25.25 47.938 C25.262 49.364 25.262 49.364 25.273 50.818 C25.251 58.845 24.717 66.854 19 73 C13.075 76.251 6.705 76.152 0.137 76.07 C-1.04 76.063 -1.04 76.063 -2.241 76.055 C-4.161 76.042 -6.08 76.022 -8 76 C-8.961 70.932 -9.921 65.864 -10.881 60.796 C-11.207 59.077 -11.532 57.357 -11.858 55.638 C-12.33 53.148 -12.802 50.658 -13.273 48.168 C-13.503 46.957 -13.503 46.957 -13.738 45.721 C-14.556 41.398 -15.344 37.072 -16.102 32.738 C-16.617 29.852 -17.233 27.199 -18.055 24.371 C-19.201 20.282 -19.684 16.276 -20.125 12.062 C-20.211 11.283 -20.298 10.504 -20.387 9.701 C-20.597 7.801 -20.799 5.901 -21 4 C-18.439 3.326 -15.877 2.661 -13.312 2 C-12.591 1.809 -11.87 1.618 -11.127 1.422 C-3.404 -0.553 -3.404 -0.553 0 0 Z " fill="#FAAF7D" transform="translate(612,786)"/>
<path d="M0 0 C-0.343 2.811 -0.776 3.809 -2.969 5.676 C-4.222 6.486 -4.222 6.486 -5.5 7.312 C-6.413 7.926 -7.325 8.54 -8.266 9.172 C-9.168 9.775 -10.07 10.378 -11 11 C-24.293 20.276 -35.375 32.332 -44 46 C-44.396 46.626 -44.791 47.253 -45.199 47.898 C-60.883 73.203 -63.67 99.822 -63.312 129.125 C-63.301 131.573 -63.291 134.021 -63.283 136.469 C-63.27 138.836 -63.255 141.203 -63.238 143.57 C-63.231 144.642 -63.224 145.715 -63.216 146.819 C-63.139 152.987 -62.79 159.073 -62.234 165.216 C-61.909 169.085 -61.776 172.947 -61.684 176.828 C-61.663 177.588 -61.642 178.348 -61.621 179.131 C-61.556 181.504 -61.497 183.877 -61.438 186.25 C-61.394 187.882 -61.351 189.513 -61.307 191.145 C-61.201 195.096 -61.099 199.048 -61 203 C-60.211 202.389 -59.423 201.779 -58.61 201.15 C-57.546 200.337 -56.482 199.524 -55.418 198.711 C-54.382 197.915 -53.346 197.119 -52.278 196.298 C-36.29 184.594 -17.074 182.57 2.074 184.273 C11.754 185.969 23.952 189.883 31 197 C31.734 199.688 31.734 199.688 32 202 C26.946 202.532 23.529 201.158 19.051 199.07 C10.149 195.947 1.039 195.643 -8.312 195.688 C-9.502 195.692 -10.692 195.696 -11.918 195.7 C-20.319 195.808 -27.96 196.395 -36 199 C-36.868 199.267 -37.735 199.534 -38.629 199.809 C-49.186 203.526 -58.848 210.725 -66.625 218.688 C-68.733 220.74 -70.309 221.904 -73 223 C-73.33 222.34 -73.66 221.68 -74 221 C-73.34 221 -72.68 221 -72 221 C-72.062 220.113 -72.124 219.226 -72.188 218.312 C-72 215 -72 215 -70.509 212.635 C-68.786 209.626 -68.638 207.956 -68.672 204.52 C-68.677 203.435 -68.682 202.35 -68.688 201.232 C-68.708 200.104 -68.729 198.975 -68.75 197.812 C-68.755 196.765 -68.76 195.718 -68.766 194.639 C-68.829 187.808 -69.075 180.993 -69.36 174.169 C-69.951 159.952 -70.249 145.751 -70.295 131.522 C-70.307 129.043 -70.327 126.565 -70.357 124.087 C-70.838 83.174 -61.198 48.499 -32.188 18.75 C-23.563 10.155 -12.726 -0.489 0 0 Z " fill="#0D0C35" transform="translate(728,520)"/>
<path d="M0 0 C0.33 0.33 0.66 0.66 1 1 C4.283 1.156 7.038 0.991 10.25 0.25 C15.493 -0.1 19.315 1.804 24 4 C23.764 5.073 23.764 5.073 23.523 6.168 C22.321 12.674 21.782 18.771 25.375 24.562 C26.813 26.585 28.24 28.24 30 30 C29.731 34.745 29.142 38.381 26 42 C19.125 46.874 12.3 48.328 4 47 C-4.768 44.352 -10.89 38.438 -15.383 30.582 C-18.125 24.551 -19.138 18.564 -18 12 C-14.47 3.363 -9.308 -0.776 0 0 Z " fill="#FEFEFE" transform="translate(362,745)"/>
<path d="M0 0 C1.114 0.155 1.114 0.155 2.25 0.312 C1.375 6.062 1.375 6.062 0.25 8.312 C-0.374 12.397 -0.755 16.516 -1.188 20.625 C-1.32 21.867 -1.453 23.11 -1.59 24.389 C-2.656 34.697 -3.391 45.014 -4.051 55.356 C-4.514 62.444 -5.205 69.384 -6.246 76.41 C-7.894 89.172 -8.656 102.085 -9.188 114.938 C-9.76 128.769 -11.337 142.547 -12.75 156.312 C-14.406 156.695 -16.075 157.026 -17.75 157.312 C-19.635 155.428 -18.944 152.3 -18.965 149.789 C-18.963 136.127 -17.6 122.493 -16.49 108.885 C-16.252 105.937 -16.02 102.989 -15.788 100.04 C-15.509 96.493 -15.225 92.946 -14.941 89.398 C-14.837 88.088 -14.733 86.778 -14.626 85.427 C-14.157 79.687 -13.627 74.005 -12.75 68.312 C-12.599 65.707 -12.476 63.108 -12.375 60.5 C-11.965 51.658 -11.27 42.845 -10.509 34.028 C-10.379 32.524 -10.252 31.02 -10.126 29.515 C-7.725 0.878 -7.725 0.878 0 0 Z " fill="#0D0C35" transform="translate(604.75,544.6875)"/>
<path d="M0 0 C-1.102 2.23 -2.206 4.459 -3.312 6.688 C-3.621 7.313 -3.93 7.939 -4.248 8.584 C-5.15 10.397 -6.075 12.199 -7 14 C-7.427 14.919 -7.853 15.838 -8.293 16.785 C-10.724 19.939 -13.248 20.546 -17 21.75 C-18.856 22.361 -18.856 22.361 -20.75 22.984 C-21.822 23.32 -22.895 23.655 -24 24 C-24.99 24.33 -25.98 24.66 -27 25 C-30.391 25.255 -33.788 25.231 -37.188 25.25 C-38.109 25.271 -39.03 25.291 -39.979 25.312 C-47.028 25.353 -52.465 24.505 -58.359 20.328 C-60.692 17.018 -61.405 13.671 -62.25 9.75 C-62.423 9.005 -62.595 8.26 -62.773 7.492 C-63.195 5.664 -63.599 3.833 -64 2 C-62.312 2.458 -60.625 2.916 -58.938 3.375 C-57.998 3.63 -57.058 3.885 -56.09 4.148 C-53.911 4.749 -51.745 5.397 -49.59 6.078 C-34.99 9.827 -18.271 5.911 -4.883 -0.363 C-3 -1 -3 -1 0 0 Z " fill="#8690CC" transform="translate(589,536)"/>
<path d="M0 0 C3.643 1.062 7.108 2.433 10.613 3.879 C11.306 4.161 11.999 4.442 12.713 4.732 C14.41 5.423 16.106 6.119 17.801 6.816 C16.926 13.566 16.926 13.566 15.801 15.816 C15.252 22.294 16.101 25.472 19.801 30.816 C20.564 31.435 21.327 32.054 22.113 32.691 C24.1 35.193 24.08 35.954 23.926 39.066 C22.839 45.729 18.986 50.05 13.863 54.191 C6.132 58.294 -1.523 58.762 -10.199 57.816 C-21.19 54.256 -27.701 46.718 -33.242 36.984 C-36.518 29.925 -36.464 20.704 -34.543 13.281 C-32.094 7.803 -27.55 3.492 -22.199 0.816 C-17.062 0.636 -12.254 0.985 -7.18 1.793 C-4.144 1.829 -3.099 -0.259 0 0 Z M-29.137 14.504 C-31.543 22.007 -30.826 29.263 -27.582 36.398 C-23.089 44.255 -16.967 50.168 -8.199 52.816 C-0.901 53.984 5.277 53.097 11.727 49.441 C15.078 46.816 16.756 43.92 17.801 39.816 C17.801 35.348 15.609 33.135 12.801 29.816 C10.812 26.59 10.556 24.144 10.613 20.379 C10.62 19.452 10.626 18.525 10.633 17.57 C10.796 14.899 11.209 12.423 11.801 9.816 C4.7 6.082 -0.672 5.545 -8.609 6.555 C-9.464 6.641 -10.319 6.727 -11.199 6.816 C-11.529 6.486 -11.859 6.156 -12.199 5.816 C-20.574 4.806 -24.334 7.842 -29.137 14.504 Z " fill="#161740" transform="translate(374.19921875,739.18359375)"/>
<path d="M0 0 C0.33 0 0.66 0 1 0 C1.33 2.31 1.66 4.62 2 7 C3.65 7.33 5.3 7.66 7 8 C6.67 10.64 6.34 13.28 6 16 C6.99 16 7.98 16 9 16 C9.413 15.072 9.825 14.144 10.25 13.188 C11.946 10.098 12.898 8.598 16 7 C18.129 7.434 18.129 7.434 20 8 C19.965 8.736 19.93 9.472 19.895 10.23 C19.775 14.527 19.684 18.106 21.125 22.188 C22.936 24.281 22.936 24.281 26 24.5 C29.3 23.95 30.042 23.605 32 21 C32.361 18.717 32.361 18.717 32.188 16.312 C32.16 15.504 32.133 14.696 32.105 13.863 C32.053 12.941 32.053 12.941 32 12 C33.32 12.66 34.64 13.32 36 14 C36.33 10.7 36.66 7.4 37 4 C37.33 4 37.66 4 38 4 C38.147 7.666 38.234 11.332 38.312 15 C38.354 16.03 38.396 17.06 38.439 18.121 C38.549 25.029 37.704 29.764 33 35 C30.867 36.621 30.867 36.621 28.875 37.438 C28.212 37.725 27.55 38.012 26.867 38.309 C20.674 40.602 14.893 41.184 8.75 38.375 C4.921 36.46 1.778 33.926 0 30 C-0.62 24.863 -0.471 19.782 -0.312 14.625 C-0.287 13.207 -0.265 11.789 -0.244 10.371 C-0.189 6.913 -0.103 3.457 0 0 Z " fill="#FAAF7D" transform="translate(469,361)"/>
<path d="M0 0 C0.66 0 1.32 0 2 0 C4.056 8.831 4.165 16.981 4 26 C-5.24 26 -14.48 26 -24 26 C-24 23.69 -24 21.38 -24 19 C-25.98 19.66 -27.96 20.32 -30 21 C-30.33 22.65 -30.66 24.3 -31 26 C-34.63 26 -38.26 26 -42 26 C-40.245 22.489 -38.496 19.911 -36.062 16.875 C-35.373 16.006 -34.683 15.137 -33.973 14.242 C-31.358 11.271 -29.848 10.055 -25.848 9.797 C-23.974 9.774 -23.974 9.774 -22.062 9.75 C-14.457 9.467 -8.35 7.349 -2 3 C-1.34 2.01 -0.68 1.02 0 0 Z " fill="#8690CC" transform="translate(433,601)"/>
<path d="M0 0 C1.82 1.289 1.82 1.289 3.82 3.289 C3.243 9.866 3.243 9.866 1.82 11.289 C-0.274 11.049 -2.367 10.808 -4.461 10.566 C-13.606 9.633 -20.055 10.197 -28.465 14.109 C-31.79 15.554 -34.587 16.044 -38.18 16.289 C-40.687 13.781 -41.167 12.509 -41.367 8.914 C-39.298 2.598 -34.306 0.428 -28.68 -2.586 C-19.326 -5.654 -8.454 -4.901 0 0 Z " fill="#0D0C35" transform="translate(565.1796875,329.7109375)"/>
<path d="M0 0 C0.99 0.001 0.99 0.001 2 0.003 C18.159 0.073 32.582 2.466 46.375 11.375 C48.258 13.594 48.258 13.594 49.375 15.375 C47.16 14.286 44.981 13.159 42.816 11.973 C41.391 11.213 41.391 11.213 39.938 10.438 C39.011 9.933 38.084 9.429 37.129 8.91 C27.151 4.42 16.507 3.89 5.747 3.984 C3.575 4 1.404 3.984 -0.768 3.965 C-25.016 3.928 -46.041 11.25 -63.625 28.375 C-64.273 28.973 -64.922 29.571 -65.59 30.188 C-68.732 33.157 -71.125 36.055 -73.375 39.75 C-75.798 43.588 -78.476 46.038 -82.062 48.812 C-88.679 53.96 -94.075 60.257 -96.625 68.375 C-96.903 71.755 -96.903 71.755 -96.812 75.312 C-96.806 76.497 -96.8 77.682 -96.793 78.902 C-96.636 82.14 -96.232 85.194 -95.625 88.375 C-99.454 85.275 -101.102 81.047 -102.023 76.34 C-102.658 68.018 -98.379 60.898 -93.398 54.527 C-89.772 50.41 -86.107 46.571 -81.625 43.375 C-80.635 43.375 -79.645 43.375 -78.625 43.375 C-78.374 42.654 -78.122 41.934 -77.863 41.191 C-70.553 24.565 -51.469 11.379 -35.105 5.004 C-31.948 3.981 -28.863 3.103 -25.625 2.375 C-24.86 2.201 -24.094 2.028 -23.306 1.849 C-15.533 0.244 -7.921 -0.012 0 0 Z " fill="#9295B0" transform="translate(515.625,218.625)"/>
<path d="M0 0 C3.302 1.785 5.938 3.915 7.703 7.238 C7.703 8.558 7.703 9.878 7.703 11.238 C4.733 10.743 4.733 10.743 1.703 10.238 C1.951 11.455 2.198 12.672 2.453 13.926 C2.85 17.218 2.778 18.092 1.203 21.176 C-1.943 23.772 -4.28 24.007 -8.297 24.238 C-12.17 19.638 -12.709 16.479 -12.535 10.508 C-12.297 8.238 -12.297 8.238 -11.297 5.238 C-16.264 7.202 -18.484 9.409 -21.219 13.812 C-21.575 14.283 -21.93 14.754 -22.297 15.238 C-22.957 15.238 -23.617 15.238 -24.297 15.238 C-24.753 9.532 -23.996 6.637 -20.297 2.238 C-14.457 -2.038 -6.815 -2.26 0 0 Z " fill="#0D0C35" transform="translate(558.296875,354.76171875)"/>
<path d="M0 0 C4.685 1.68 7.866 4.129 11 8 C11.312 10.812 11.312 10.812 11 13 C10.01 13 9.02 13 8 13 C8.124 14.609 8.124 14.609 8.25 16.25 C8 20 8 20 6.375 22.438 C3.319 24.448 1.594 24.535 -2 24 C-4.559 22.147 -4.979 21.062 -6 18 C-6.069 16.105 -6.085 14.208 -6.062 12.312 C-6.053 11.319 -6.044 10.325 -6.035 9.301 C-6.024 8.542 -6.012 7.782 -6 7 C-9.812 7.79 -11.44 9.013 -14 12 C-15.235 14.133 -15.235 14.133 -16 16 C-17.32 15.67 -18.64 15.34 -20 15 C-19.898 10.009 -19.131 7.701 -15.562 4.125 C-10.613 -0.483 -6.625 -0.561 0 0 Z " fill="#0D0C35" transform="translate(494,362)"/>
<path d="M0 0 C1.32 0.33 2.64 0.66 4 1 C4.75 2.691 4.75 2.691 5 5 C-0.37 12.939 -8.006 19.729 -17.281 22.492 C-28.661 24.618 -37.526 23.228 -47.062 17 C-49 15 -49 15 -49 11 C-45.486 11.562 -42.863 13.179 -39.879 15.062 C-33.584 18.204 -24.965 17.944 -18.277 16.352 C-10.875 13.674 -4.981 9.405 -1 2.562 C-0.67 1.717 -0.34 0.871 0 0 Z " fill="#19142F" transform="translate(554,417)"/>
<path d="M0 0 C3.019 0.738 4.179 1.056 5.812 3.688 C6 6.375 6 6.375 5.812 8.688 C4.492 8.358 3.173 8.027 1.812 7.688 C1.812 7.027 1.812 6.368 1.812 5.688 C-0.163 6.035 -0.163 6.035 -2.188 6.688 C-3.709 9.73 -3.764 11.294 -3.188 14.688 C-1.346 16.388 -1.346 16.388 0.875 18 C4.685 21.035 4.685 21.035 5.262 23.992 C4.962 27.58 4.166 30.098 2.312 33.188 C-1.348 35.384 -4.981 35.508 -9.188 35.688 C-9.518 34.368 -9.847 33.048 -10.188 31.688 C-6.888 30.697 -3.587 29.707 -0.188 28.688 C-1.128 24.55 -1.762 23 -5.25 20.438 C-6.219 19.86 -7.189 19.283 -8.188 18.688 C-9.83 15.403 -9.834 12.222 -9.188 8.688 C-7.017 4.257 -4.946 1.067 0 0 Z " fill="#0D0C35" transform="translate(622.1875,345.3125)"/>
<path d="M0 0 C0.46 9.723 0.46 9.723 -1.125 14.125 C-3.611 16.611 -5.563 16.701 -9 17 C-9.33 17.33 -9.66 17.66 -10 18 C-11.525 17.911 -13.047 17.755 -14.562 17.562 C-15.389 17.461 -16.215 17.359 -17.066 17.254 C-17.704 17.17 -18.343 17.086 -19 17 C-18.34 16.67 -17.68 16.34 -17 16 C-17.155 14.453 -17.155 14.453 -17.312 12.875 C-16.916 7.953 -15.531 6.377 -12 3 C-7.851 0.351 -4.898 -0.35 0 0 Z " fill="#8A8F9F" transform="translate(379,724)"/>
<path d="M0 0 C4.009 2.047 6.714 3.656 9.125 7.5 C6.91 6.411 4.731 5.284 2.566 4.098 C1.616 3.591 0.666 3.084 -0.312 2.562 C-1.703 1.806 -1.703 1.806 -3.121 1.035 C-15.078 -4.304 -27.869 -4.029 -40.688 -4.188 C-42.555 -4.221 -44.423 -4.255 -46.291 -4.291 C-50.819 -4.375 -55.347 -4.442 -59.875 -4.5 C-48.561 -15.814 -12.388 -5.984 0 0 Z " fill="#9B9EBB" transform="translate(555.875,226.5)"/>
<path d="M0 0 C0.66 0.33 1.32 0.66 2 1 C1.457 1.592 0.915 2.183 0.355 2.793 C-0.718 3.978 -0.718 3.978 -1.812 5.188 C-2.874 6.353 -2.874 6.353 -3.957 7.543 C-9.024 13.637 -11.282 19 -11.188 26.938 C-11.181 28.122 -11.175 29.307 -11.168 30.527 C-11.011 33.765 -10.607 36.819 -10 40 C-13.829 36.9 -15.477 32.672 -16.398 27.965 C-17.02 19.807 -12.684 12.627 -7.965 6.25 C-5.853 3.831 -3.809 2.518 -1 1 C-0.67 0.67 -0.34 0.34 0 0 Z " fill="#9295B0" transform="translate(430,267)"/>
<path d="M0 0 C-0.035 1.087 -0.035 1.087 -0.07 2.195 C-0.17 7.546 -0.165 11.994 2 17 C-1.622 16.721 -4.316 16.421 -7.438 14.5 C-9.776 10.759 -9.919 7.287 -9 3 C-5.935 -0.576 -4.41 -1.413 0 0 Z " fill="#F4F2F4" transform="translate(489,369)"/>
<path d="M0 0 C0.833 0.005 1.665 0.01 2.523 0.016 C3.422 0.019 4.321 0.022 5.248 0.026 C6.666 0.038 6.666 0.038 8.113 0.051 C9.062 0.056 10.012 0.06 10.99 0.065 C13.344 0.077 15.697 0.093 18.051 0.114 C18.093 1.78 18.091 3.447 18.051 5.114 C17.051 6.114 17.051 6.114 15.193 6.227 C14.402 6.222 13.611 6.217 12.797 6.211 C11.943 6.208 11.089 6.205 10.209 6.201 C9.311 6.193 8.413 6.185 7.488 6.176 C6.586 6.172 5.685 6.167 4.756 6.162 C2.521 6.151 0.286 6.134 -1.949 6.114 C-2.332 4.457 -2.663 2.789 -2.949 1.114 C-1.949 0.114 -1.949 0.114 0 0 Z " fill="#0D0C35" transform="translate(897.949462890625,872.886474609375)"/>
<path d="M0 0 C1.186 0.008 1.186 0.008 2.396 0.016 C3.677 0.021 3.677 0.021 4.984 0.026 C5.882 0.034 6.78 0.042 7.705 0.051 C8.607 0.056 9.508 0.06 10.437 0.065 C12.672 0.077 14.907 0.093 17.142 0.114 C17.525 1.77 17.856 3.438 18.142 5.114 C17.142 6.114 17.142 6.114 15.285 6.227 C14.494 6.222 13.703 6.217 12.888 6.211 C12.034 6.208 11.18 6.205 10.301 6.201 C9.403 6.193 8.505 6.185 7.58 6.176 C6.678 6.172 5.776 6.167 4.847 6.162 C2.612 6.151 0.377 6.134 -1.858 6.114 C-2.24 4.457 -2.572 2.789 -2.858 1.114 C-1.858 0.114 -1.858 0.114 0 0 Z " fill="#161740" transform="translate(78.857666015625,872.886474609375)"/>
<path d="M0 0 C-0.035 1.321 -0.035 1.321 -0.07 2.668 C-0.088 3.829 -0.106 4.991 -0.125 6.188 C-0.16 7.91 -0.16 7.91 -0.195 9.668 C-0.005 12.917 0.606 15.087 2 18 C-1.161 17.925 -3.311 17.578 -5.77 15.516 C-8.878 12.109 -8.878 12.109 -10 10 C-9.588 6.118 -7.556 3.865 -5 1 C-3 0 -3 0 0 0 Z " fill="#E3E7EF" transform="translate(547,360)"/>
<path d="M0 0 C4.973 1.698 8.519 5.203 12 9 C11.67 9.66 11.34 10.32 11 11 C10.278 10.381 9.556 9.762 8.812 9.125 C2.43 4.303 -4.217 4.025 -12 5 C-14.467 6.116 -16.393 7.33 -18.512 9.004 C-19.003 9.333 -19.494 9.661 -20 10 C-20.66 9.67 -21.32 9.34 -22 9 C-20.544 7.685 -19.085 6.373 -17.625 5.062 C-16.813 4.332 -16.001 3.601 -15.164 2.848 C-10.619 -1.033 -5.753 -0.573 0 0 Z " fill="#9295B0" transform="translate(603,229)"/>
<path d="M0 0 C-0.364 7.152 -0.364 7.152 -3.25 11 C-6.22 13.16 -7.428 13.51 -11 13 C-11.437 7.754 -11.437 7.754 -11 5 C-7.435 1.341 -5.096 0 0 0 Z " fill="#ADB4BE" transform="translate(376,728)"/>
<path d="M0 0 C0.66 0 1.32 0 2 0 C4.642 2.642 4.852 4.301 5 8 C3.625 10.312 3.625 10.312 1 12 C-1.994 12.612 -4.95 12.87 -8 13 C-8.33 11.68 -8.66 10.36 -9 9 C-4.05 7.515 -4.05 7.515 1 6 C0.67 4.02 0.34 2.04 0 0 Z " fill="#271A2E" transform="translate(621,368)"/>
<path d="M0 0 C2.124 -0.002 4.248 -0.02 6.373 -0.039 C7.72 -0.042 9.067 -0.044 10.414 -0.045 C12.255 -0.051 12.255 -0.051 14.133 -0.058 C17.066 0.185 17.066 0.185 19.066 2.185 C6.856 2.515 -5.354 2.845 -17.934 3.185 C-13.316 -1.433 -6.114 -0.001 0 0 Z " fill="#D8DCE5" transform="translate(513.933837890625,218.814697265625)"/>
<path d="M0 0 C0.66 0 1.32 0 2 0 C2.038 0.87 2.038 0.87 2.076 1.757 C2.192 4.4 2.315 7.044 2.438 9.688 C2.477 10.6 2.516 11.512 2.557 12.451 C2.599 13.337 2.64 14.224 2.684 15.137 C2.72 15.948 2.757 16.76 2.795 17.596 C3.01 20.121 3.459 22.526 4 25 C0.125 23.25 0.125 23.25 -1 21 C-1.31 13.963 -1.321 6.933 0 0 Z " fill="#9295B0" transform="translate(426,306)"/>
<path d="M0 0 C0.66 0 1.32 0 2 0 C2.248 0.887 2.495 1.774 2.75 2.688 C4.039 6.104 5.6 8.28 8 11 C4.37 11 0.74 11 -3 11 C-3.323 6.374 -2.845 3.72 0 0 Z " fill="#626CA4" transform="translate(326,616)"/>
<path d="M0 0 C0.33 0 0.66 0 1 0 C1.087 3.729 1.141 7.458 1.188 11.188 C1.225 12.77 1.225 12.77 1.264 14.385 C1.278 15.917 1.278 15.917 1.293 17.48 C1.309 18.418 1.324 19.355 1.341 20.321 C0.937 23.493 -0.204 25.387 -2 28 C-3.062 26.125 -3.062 26.125 -4 24 C-3.67 23.34 -3.34 22.68 -3 22 C-2.818 20.17 -2.678 18.335 -2.562 16.5 C-2.141 10.877 -1.252 5.493 0 0 Z " fill="#FAA56F" transform="translate(506,365)"/>
<path d="M0 0 C0.577 0.213 1.155 0.425 1.75 0.645 C0.005 4.864 -2.117 6.133 -6.141 8.027 C-9.304 8.953 -11.379 8.08 -14.25 6.645 C-13.673 6.37 -13.095 6.095 -12.5 5.812 C-9.583 4.298 -6.949 2.441 -4.25 0.57 C-2.25 -0.355 -2.25 -0.355 0 0 Z " fill="#19142F" transform="translate(529.25,407.35546875)"/>
<path d="M0 0 C2.52 3.78 3.158 5.774 3.5 10.25 C3.828 14.212 4.26 18.09 5 22 C1.749 19.368 0.101 15.963 -1 12 C-1.403 7.743 -1.356 4.069 0 0 Z " fill="#7D8199" transform="translate(415,285)"/>
<path d="M0 0 C0.66 0.99 1.32 1.98 2 3 C-1.476 8.079 -4.54 11.914 -10 15 C-10.722 15.413 -11.444 15.825 -12.188 16.25 C-14 17 -14 17 -17 17 C-15.571 15.658 -14.131 14.326 -12.688 13 C-11.487 11.886 -11.487 11.886 -10.262 10.75 C-8 9 -8 9 -5 9 C-4.732 8.257 -4.464 7.515 -4.188 6.75 C-3.058 4.134 -1.791 2.198 0 0 Z " fill="#7D8199" transform="translate(442,253)"/>
<path d="M0 0 C1.32 0.33 2.64 0.66 4 1 C4 2.65 4 4.3 4 6 C3.34 6 2.68 6 2 6 C2.012 6.785 2.023 7.57 2.035 8.379 C2.084 14.037 2.013 19.429 1 25 C0.67 25 0.34 25 0 25 C0 16.75 0 8.5 0 0 Z " fill="#FAAF7D" transform="translate(514,366)"/>
<path d="M0 0 C1.025 0.052 2.05 0.103 3.105 0.156 C4.701 0.253 4.701 0.253 6.328 0.352 C7.947 0.437 7.947 0.437 9.598 0.523 C12.259 0.665 14.918 0.816 17.578 0.977 C17.578 1.307 17.578 1.637 17.578 1.977 C11.308 1.977 5.038 1.977 -1.422 1.977 C-1.092 2.967 -0.762 3.957 -0.422 4.977 C-5.96 5.346 -5.96 5.346 -8.297 3.477 C-8.668 2.982 -9.039 2.487 -9.422 1.977 C-6.121 -0.013 -3.818 -0.212 0 0 Z " fill="#05052A" transform="translate(542.421875,537.0234375)"/>
<path d="M0 0 C1.32 0 2.64 0 4 0 C4.554 10.558 4.554 10.558 1 15 C0.01 14.34 -0.98 13.68 -2 13 C-0.68 9.04 0.64 5.08 2 1 C1.34 0.67 0.68 0.34 0 0 Z " fill="#7D8199" transform="translate(375,725)"/>
<path d="M0 0 C0.66 0 1.32 0 2 0 C3.594 6.177 4.255 12.392 1 18.062 C0.34 19.032 -0.32 20.001 -1 21 C-1.99 20.67 -2.98 20.34 -4 20 C-3.526 19.567 -3.051 19.134 -2.562 18.688 C0.673 15.193 0.104 11.324 0.062 6.812 C0.053 5.54 0.044 4.268 0.035 2.957 C0.024 1.981 0.012 1.005 0 0 Z " fill="#D8DCE5" transform="translate(594,859)"/>
<path d="M0 0 C2.163 2.884 4.202 5.75 6.188 8.75 C6.717 9.549 7.247 10.348 7.793 11.172 C8.191 11.775 8.59 12.378 9 13 C5.894 13 4.647 12.461 2 11 C2 10.34 2 9.68 2 9 C1.01 9.33 0.02 9.66 -1 10 C-0.67 6.7 -0.34 3.4 0 0 Z " fill="#161740" transform="translate(345,772)"/>
<path d="M0 0 C0.66 0.33 1.32 0.66 2 1 C1.039 1.944 1.039 1.944 0.059 2.906 C-5.186 8.096 -10.242 13.359 -15 19 C-15.33 18.34 -15.66 17.68 -16 17 C-10.946 11.037 -5.583 5.469 0 0 Z " fill="#252253" transform="translate(459,239)"/>
<path d="M0 0 C0.66 0 1.32 0 2 0 C2.531 2.582 3.05 5.165 3.562 7.75 C3.79 8.844 3.79 8.844 4.021 9.961 C4.746 13.666 5.098 16.393 4 20 C3.34 19.67 2.68 19.34 2 19 C1.367 16.27 1.367 16.27 0.875 12.812 C0.624 11.121 0.624 11.121 0.367 9.395 C0.025 6.229 -0.068 3.181 0 0 Z " fill="#CFD3DD" transform="translate(581,788)"/>
<path d="M0 0 C5.009 1.473 7.518 4.275 11 8 C10.67 8.66 10.34 9.32 10 10 C9.278 9.381 8.556 8.762 7.812 8.125 C2.195 3.88 -3.152 3.505 -10 3 C-10 2.67 -10 2.34 -10 2 C-6.7 2 -3.4 2 0 2 C0 1.34 0 0.68 0 0 Z " fill="#7D8199" transform="translate(604,230)"/>
<path d="M0 0 C0.66 0.33 1.32 0.66 2 1 C0.673 4.582 -1.514 6.423 -4.469 8.762 C-6.458 10.37 -8.227 12.159 -10 14 C-8.628 9.935 -6.779 7.326 -3.875 4.188 C-3.151 3.397 -2.426 2.607 -1.68 1.793 C-1.125 1.201 -0.571 0.61 0 0 Z " fill="#252253" transform="translate(466,484)"/>
<path d="M0 0 C-1.895 0.338 -3.791 0.671 -5.688 1 C-6.743 1.186 -7.799 1.371 -8.887 1.562 C-11.649 1.951 -14.217 2.083 -17 2 C-15.728 -0.544 -14.801 -0.694 -12.188 -1.688 C-11.5 -1.959 -10.813 -2.231 -10.105 -2.512 C-6.228 -3.411 -3.393 -1.818 0 0 Z " fill="#9B9EBB" transform="translate(502,223)"/>
<path d="M0 0 C0.33 0 0.66 0 1 0 C1.054 2.062 1.093 4.125 1.125 6.188 C1.148 7.336 1.171 8.485 1.195 9.668 C1.005 12.917 0.394 15.087 -1 18 C-1.33 18 -1.66 18 -2 18 C-1.859 15.375 -1.713 12.75 -1.562 10.125 C-1.523 9.379 -1.484 8.632 -1.443 7.863 C-1.113 2.227 -1.113 2.227 0 0 Z " fill="#787FC3" transform="translate(599,615)"/>
<path d="M0 0 C0.66 0.33 1.32 0.66 2 1 C1.574 2.441 1.134 3.878 0.688 5.312 C0.444 6.113 0.2 6.914 -0.051 7.738 C-1.042 10.1 -2.081 11.339 -4 13 C-4.33 12.34 -4.66 11.68 -5 11 C-4.34 11 -3.68 11 -3 11 C-3.247 10.484 -3.495 9.969 -3.75 9.438 C-4.15 5.535 -2.068 3.258 0 0 Z " fill="#EE9C6B" transform="translate(572,374)"/>
<path d="M0 0 C0.66 0.33 1.32 0.66 2 1 C1.29 1.629 0.579 2.258 -0.152 2.906 C-6.359 8.259 -6.359 8.259 -9.125 15.625 C-9.084 16.739 -9.043 17.853 -9 19 C-9.33 19 -9.66 19 -10 19 C-10.614 14.789 -10.874 11.389 -8.547 7.691 C-5.884 4.642 -3.378 2.252 0 0 Z " fill="#C68868" transform="translate(616,341)"/>
<path d="M0 0 C-1.77 2.211 -2.755 2.944 -5.559 3.582 C-6.509 3.658 -7.459 3.734 -8.438 3.812 C-9.385 3.901 -10.332 3.99 -11.309 4.082 C-14.125 3.996 -15.622 3.456 -18 2 C-15.938 1.662 -13.876 1.33 -11.812 1 C-10.664 0.814 -9.515 0.629 -8.332 0.438 C-5.496 0.065 -2.853 -0.086 0 0 Z " fill="#0D0C35" transform="translate(672,860)"/>
<path d="M0 0 C0.66 0 1.32 0 2 0 C2.179 3.947 2.094 6.598 0 10 C-0.99 10 -1.98 10 -3 10 C-2.25 3.375 -2.25 3.375 0 0 Z " fill="#787FC3" transform="translate(326,616)"/>
<path d="M0 0 C-0.062 1.75 -0.062 1.75 -1 4 C-3.242 5.595 -5.536 6.745 -8 8 C-8.66 7.34 -9.32 6.68 -10 6 C-8.713 4.994 -7.42 3.996 -6.125 3 C-5.406 2.443 -4.686 1.886 -3.945 1.312 C-2 0 -2 0 0 0 Z " fill="#8A8F9F" transform="translate(468,231)"/>
<path d="M0 0 C2 1 2 1 2.668 2.926 C2.839 3.713 3.011 4.501 3.188 5.312 C3.367 6.092 3.546 6.872 3.73 7.676 C4.011 10.092 3.741 11.702 3 14 C2.34 13.67 1.68 13.34 1 13 C-0.299 8.712 -0.075 4.435 0 0 Z " fill="#CFD3DD" transform="translate(564,696)"/>
<path d="M0 0 C0 0.33 0 0.66 0 1 C-1.299 1.34 -1.299 1.34 -2.625 1.688 C-6.618 3.24 -8.842 5.143 -12 8 C-11.654 5.443 -11.249 3.425 -9.938 1.188 C-6.754 -0.763 -3.676 -0.181 0 0 Z " fill="#E3E7EF" transform="translate(184,637)"/>
<path d="M0 0 C0.33 0 0.66 0 1 0 C1 7.59 1 15.18 1 23 C0.67 23 0.34 23 0 23 C-0.061 22.229 -0.121 21.458 -0.184 20.664 C-0.267 19.661 -0.351 18.658 -0.438 17.625 C-0.519 16.627 -0.6 15.63 -0.684 14.602 C-0.85 12.021 -0.85 12.021 -2 10 C-1.66 7.617 -1.66 7.617 -1.062 4.875 C-0.868 3.965 -0.673 3.055 -0.473 2.117 C-0.317 1.419 -0.161 0.72 0 0 Z " fill="#B67761" transform="translate(506,365)"/>
<path d="M0 0 C0.99 0.33 1.98 0.66 3 1 C1.881 2.173 0.755 3.338 -0.375 4.5 C-1.001 5.15 -1.628 5.799 -2.273 6.469 C-4 8 -4 8 -6 8 C-5.664 4.86 -4.948 3.949 -2.625 1.688 C-1.759 1.131 -0.892 0.574 0 0 Z " fill="#9295B0" transform="translate(457,238)"/>
<path d="M0 0 C0.66 0.33 1.32 0.66 2 1 C-5.2 7 -5.2 7 -10 7 C-8.901 6.015 -7.795 5.037 -6.688 4.062 C-6.073 3.517 -5.458 2.972 -4.824 2.41 C-3 1 -3 1 0 0 Z " fill="#7D8199" transform="translate(435,263)"/>
<path d="M0 0 C2.31 0 4.62 0 7 0 C7.33 0.99 7.66 1.98 8 3 C5.03 3 2.06 3 -1 3 C-0.67 2.01 -0.34 1.02 0 0 Z " fill="#9B9EBB" transform="translate(596,229)"/>
<path d="M0 0 C0.33 0 0.66 0 1 0 C1.339 1.415 1.671 2.832 2 4.25 C2.186 5.039 2.371 5.828 2.562 6.641 C3 9 3 9 3 13 C2.34 13 1.68 13 1 13 C0.636 11.398 0.284 9.793 -0.062 8.188 C-0.26 7.294 -0.457 6.401 -0.66 5.48 C-1 3 -1 3 0 0 Z " fill="#D8DCE5" transform="translate(573,740)"/>
<path d="M0 0 C2.062 0.438 2.062 0.438 4 1 C3.01 1.495 3.01 1.495 2 2 C0.997 5.008 0.697 7.538 0.438 10.688 C0.354 11.681 0.27 12.675 0.184 13.699 C0.123 14.458 0.062 15.218 0 16 C-0.33 16 -0.66 16 -1 16 C-1.027 13.521 -1.047 11.042 -1.062 8.562 C-1.075 7.502 -1.075 7.502 -1.088 6.42 C-1.097 4.613 -1.052 2.806 -1 1 C-0.67 0.67 -0.34 0.34 0 0 Z " fill="#E39C76" transform="translate(581,358)"/>
<path d="M0 0 C0.33 0 0.66 0 1 0 C2.083 5.321 3.153 10.635 4 16 C1.381 13.494 0.043 12.147 -0.098 8.398 C-0.086 7.401 -0.074 6.403 -0.062 5.375 C-0.053 4.372 -0.044 3.369 -0.035 2.336 C-0.024 1.565 -0.012 0.794 0 0 Z " fill="#ADB4BE" transform="translate(416,291)"/>
<path d="M0 0 C0.66 0.33 1.32 0.66 2 1 C2 1.66 2 2.32 2 3 C-2.455 4.485 -2.455 4.485 -7 6 C-7.66 5.34 -8.32 4.68 -9 4 C-7.886 3.526 -6.773 3.051 -5.625 2.562 C-3.733 1.747 -1.843 0.921 0 0 Z " fill="#161740" transform="translate(752,843)"/>
<path d="M0 0 C-0.66 0.66 -1.32 1.32 -2 2 C-2.33 2.99 -2.66 3.98 -3 5 C-4.98 5 -6.96 5 -9 5 C-8.625 3.062 -8.625 3.062 -8 1 C-5.291 -0.354 -2.991 -0.065 0 0 Z " fill="#9295B0" transform="translate(379,724)"/>
<path d="M0 0 C0.66 0.33 1.32 0.66 2 1 C1.277 1.688 1.277 1.688 0.539 2.391 C-0.093 3.004 -0.724 3.618 -1.375 4.25 C-2.001 4.853 -2.628 5.457 -3.273 6.078 C-4.973 7.97 -5.985 9.682 -7 12 C-6.759 5.854 -6.759 5.854 -4.598 3.422 C-3.12 2.212 -1.564 1.098 0 0 Z " fill="#37253E" transform="translate(531,330)"/>
<path d="M0 0 C0.99 0.33 1.98 0.66 3 1 C2.67 1.66 2.34 2.32 2 3 C-0.285 3.633 -0.285 3.633 -3.062 4.125 C-3.982 4.293 -4.901 4.46 -5.848 4.633 C-6.913 4.815 -6.913 4.815 -8 5 C-7.67 4.01 -7.34 3.02 -7 2 C-3.535 1.505 -3.535 1.505 0 1 C0 0.67 0 0.34 0 0 Z " fill="#252253" transform="translate(738,849)"/>
<path d="M0 0 C0.33 0 0.66 0 1 0 C1.188 2.875 1.188 2.875 1 6 C0.01 6.66 -0.98 7.32 -2 8 C-2.66 7.34 -3.32 6.68 -4 6 C-2.696 3.981 -1.362 1.981 0 0 Z " fill="#76778C" transform="translate(377,732)"/>
<path d="M0 0 C-4.139 2.759 -7.072 3.137 -12 3 C-8.616 -0.384 -4.564 -1.756 0 0 Z " fill="#8A8F9F" transform="translate(489,223)"/>
<path d="M0 0 C3.3 1.65 6.6 3.3 10 5 C4.861 6.285 3.622 5.222 -1 3 C-0.67 2.01 -0.34 1.02 0 0 Z " fill="#14154F" transform="translate(553,217)"/>
<path d="M0 0 C1.984 2.917 1.988 4.124 1.625 7.75 C1.419 8.822 1.213 9.895 1 11 C-1.09 7.604 -1.263 4.948 -1 1 C-0.67 0.67 -0.34 0.34 0 0 Z " fill="#E3E7EF" transform="translate(181,674)"/>
<path d="M0 0 C0.33 0 0.66 0 1 0 C1 2.97 1 5.94 1 9 C-0.65 8.67 -2.3 8.34 -4 8 C-3.34 7.01 -2.68 6.02 -2 5 C-1.34 5 -0.68 5 0 5 C0 3.35 0 1.7 0 0 Z " fill="#EE9C6B" transform="translate(436,543)"/>
<path d="M0 0 C4.431 1.208 6.981 2.517 10 6 C6.059 5.437 3.249 4.321 0 2 C0 1.34 0 0.68 0 0 Z " fill="#252253" transform="translate(385,449)"/>
<path d="M0 0 C1.32 0 2.64 0 4 0 C2.771 3.688 1.061 4.724 -2 7 C-1.125 1.125 -1.125 1.125 0 0 Z " fill="#E39C76" transform="translate(620,351)"/>
<path d="M0 0 C0 3 0 3 -1.312 4.605 C-1.869 5.128 -2.426 5.65 -3 6.188 C-3.557 6.717 -4.114 7.247 -4.688 7.793 C-5.121 8.191 -5.554 8.59 -6 9 C-6.66 8.67 -7.32 8.34 -8 8 C-5.584 4.808 -3.32 2.253 0 0 Z " fill="#252253" transform="translate(584,225)"/>
<path d="M0 0 C0.99 0.495 0.99 0.495 2 1 C2.594 3.649 2.742 6.292 3 9 C2.34 9 1.68 9 1 9 C-0.478 6.043 -0.06 3.258 0 0 Z " fill="#CFD3DD" transform="translate(579,776)"/>
<path d="M0 0 C0.66 0 1.32 0 2 0 C2.66 2.97 3.32 5.94 4 9 C3.01 8.67 2.02 8.34 1 8 C0.67 5.36 0.34 2.72 0 0 Z " fill="#F4F2F4" transform="translate(201,752)"/>
<path d="M0 0 C0.66 0 1.32 0 2 0 C2.33 3.3 2.66 6.6 3 10 C-0.006 6.994 0.404 4.176 0 0 Z " fill="#F4F2F4" transform="translate(192,719)"/>
<path d="M0 0 C0.99 0.495 0.99 0.495 2 1 C2.594 3.649 2.742 6.292 3 9 C2.34 9 1.68 9 1 9 C-0.478 6.043 -0.06 3.258 0 0 Z " fill="#D8DCE5" transform="translate(567,712)"/>
<path d="M0 0 C0.66 0 1.32 0 2 0 C3.125 3.312 3.125 3.312 4 7 C3.01 8.485 3.01 8.485 2 10 C0.684 6.38 0 3.904 0 0 Z " fill="#F4F2F4" transform="translate(185,694)"/>
<path d="M0 0 C0.99 0.495 0.99 0.495 2 1 C2.594 3.649 2.742 6.292 3 9 C2.34 9 1.68 9 1 9 C-0.478 6.043 -0.06 3.258 0 0 Z " fill="#D8DCE5" transform="translate(560,675)"/>
<path d="M0 0 C0.99 0.495 0.99 0.495 2 1 C2.594 3.649 2.742 6.292 3 9 C2.34 9 1.68 9 1 9 C-0.478 6.043 -0.06 3.258 0 0 Z " fill="#CFD3DD" transform="translate(555,648)"/>
<path d="M0 0 C0.99 0.495 0.99 0.495 2 1 C2.594 3.649 2.742 6.292 3 9 C2.34 9 1.68 9 1 9 C0.67 6.03 0.34 3.06 0 0 Z " fill="#D8DCE5" transform="translate(585,810)"/>
<path d="M0 0 C2 1 2 1 2.633 2.848 C2.795 3.579 2.958 4.309 3.125 5.062 C3.293 5.796 3.46 6.529 3.633 7.285 C3.754 7.851 3.875 8.417 4 9 C3.01 8.67 2.02 8.34 1 8 C0.67 5.36 0.34 2.72 0 0 Z " fill="#F4F2F4" transform="translate(174,653)"/>
<path d="M0 0 C5.75 0.875 5.75 0.875 8 2 C8 2.66 8 3.32 8 4 C5.237 3.477 2.674 2.891 0 2 C0 1.34 0 0.68 0 0 Z " fill="#CFD3DD" transform="translate(379,740)"/>
<path d="M0 0 C1.5 1.125 1.5 1.125 3 3 C3.188 6.188 3.188 6.188 3 9 C2.34 8.67 1.68 8.34 1 8 C0.406 5.351 0.258 2.708 0 0 Z " fill="#F4F2F4" transform="translate(188,705)"/>
<path d="M0 0 C5.75 1.75 5.75 1.75 8 4 C5 5 5 5 2.312 3.688 C1.549 3.131 0.786 2.574 0 2 C0 1.34 0 0.68 0 0 Z " fill="#14154F" transform="translate(681,457)"/>
<path d="M0 0 C-1.176 0.619 -1.176 0.619 -2.375 1.25 C-5.059 3.039 -5.881 4.05 -7 7 C-7 4.69 -7 2.38 -7 0 C-3.867 -1.044 -3.01 -0.934 0 0 Z " fill="#37253E" transform="translate(513,358)"/>
</svg>